<?xml version="1.0" encoding="UTF-8" standalone="no"?>
<!-- Created with Inkscape (http://www.inkscape.org/) -->

<svg
   xmlns:dc="http://purl.org/dc/elements/1.1/"
   xmlns:cc="http://creativecommons.org/ns#"
   xmlns:rdf="http://www.w3.org/1999/02/22-rdf-syntax-ns#"
   xmlns:svg="http://www.w3.org/2000/svg"
   xmlns="http://www.w3.org/2000/svg"
   xmlns:sodipodi="http://sodipodi.sourceforge.net/DTD/sodipodi-0.dtd"
   xmlns:inkscape="http://www.inkscape.org/namespaces/inkscape"
   width="416.30807mm"
   height="225.34019mm"
   viewBox="0 0 416.30807 225.34019"
   version="1.1"
   id="svg1556"
   inkscape:version="0.92.5 (2060ec1f9f, 2020-04-08)"
   sodipodi:docname="logo_club.svg">
  <defs
     id="defs1550">
    <marker
       inkscape:stockid="Arrow2Mend"
       orient="auto"
       refY="0"
       refX="0"
       id="marker920"
       style="overflow:visible"
       inkscape:isstock="true">
      <path
         inkscape:connector-curvature="0"
         id="path918"
         style="fill:#22326d;fill-opacity:1;fill-rule:evenodd;stroke:#22326d;stroke-width:0.625;stroke-linejoin:round;stroke-opacity:1"
         d="M 8.7185878,4.0337352 -2.2072895,0.01601326 8.7185884,-4.0017078 c -1.7454984,2.3720609 -1.7354408,5.6174519 -6e-7,8.035443 z"
         transform="scale(-0.6)" />
    </marker>
    <marker
       inkscape:isstock="true"
       style="overflow:visible"
       id="marker1177"
       refX="0"
       refY="0"
       orient="auto"
       inkscape:stockid="Arrow2Mend">
      <path
         transform="scale(-0.6)"
         d="M 8.7185878,4.0337352 -2.2072895,0.01601326 8.7185884,-4.0017078 c -1.7454984,2.3720609 -1.7354408,5.6174519 -6e-7,8.035443 z"
         style="fill:#377eb8;fill-opacity:1;fill-rule:evenodd;stroke:#377eb8;stroke-width:0.625;stroke-linejoin:round;stroke-opacity:1"
         id="path1175"
         inkscape:connector-curvature="0" />
    </marker>
    <marker
       inkscape:isstock="true"
       style="overflow:visible"
       id="marker1297"
       refX="0"
       refY="0"
       orient="auto"
       inkscape:stockid="Arrow2Mend">
      <path
         transform="scale(-0.6)"
         d="M 8.7185878,4.0337352 -2.2072895,0.01601326 8.7185884,-4.0017078 c -1.7454984,2.3720609 -1.7354408,5.6174519 -6e-7,8.035443 z"
         style="fill:#377eb8;fill-opacity:1;fill-rule:evenodd;stroke:#377eb8;stroke-width:0.625;stroke-linejoin:round;stroke-opacity:1"
         id="path1295"
         inkscape:connector-curvature="0" />
    </marker>
    <marker
       inkscape:stockid="Arrow2Mend"
       orient="auto"
       refY="0"
       refX="0"
       id="marker3367"
       style="overflow:visible"
       inkscape:isstock="true">
      <path
         id="path3131"
         style="fill:#377eb8;fill-opacity:1;fill-rule:evenodd;stroke:#377eb8;stroke-width:0.625;stroke-linejoin:round;stroke-opacity:1"
         d="M 8.7185878,4.0337352 -2.2072895,0.01601326 8.7185884,-4.0017078 c -1.7454984,2.3720609 -1.7354408,5.6174519 -6e-7,8.035443 z"
         transform="scale(-0.6)"
         inkscape:connector-curvature="0" />
    </marker>
  </defs>
  <sodipodi:namedview
     id="base"
     pagecolor="#ffffff"
     bordercolor="#666666"
     borderopacity="1.0"
     inkscape:pageopacity="0.0"
     inkscape:pageshadow="2"
     inkscape:zoom="0.35"
     inkscape:cx="-266.14596"
     inkscape:cy="574.09785"
     inkscape:document-units="mm"
     inkscape:current-layer="layer1"
     showgrid="false"
     inkscape:window-width="3072"
     inkscape:window-height="1654"
     inkscape:window-x="3648"
     inkscape:window-y="0"
     inkscape:window-maximized="1"
     fit-margin-top="0"
     fit-margin-left="0"
     fit-margin-right="0"
     fit-margin-bottom="0" />
  <metadata
     id="metadata1553">
    <rdf:RDF>
      <cc:Work
         rdf:about="">
        <dc:format>image/svg+xml</dc:format>
        <dc:type
           rdf:resource="http://purl.org/dc/dcmitype/StillImage" />
        <dc:title></dc:title>
      </cc:Work>
    </rdf:RDF>
  </metadata>
  <g
     inkscape:label="Layer 1"
     inkscape:groupmode="layer"
     id="layer1"
     transform="translate(55.448287,-75.389861)">
    <g
       id="g2794">
      <path
         sodipodi:nodetypes="cssscccscsccsc"
         inkscape:connector-curvature="0"
         id="path1085"
         d="m -31.777951,195.2894 c -9.358651,-7.29244 -14.582061,-14.99099 -17.266502,-22.84942 -2.684431,-7.85843 -4.426339,-15.42063 -3.629067,-23.35264 0.82106,-8.16859 6.220655,-16.22374 13.351216,-22.49733 7.130563,-6.2736 17.588566,-11.22178 31.719387,-14.08873 C 6.0203067,84.057736 24.374174,63.892743 69.255453,90.150781 100.80957,75.718268 128.81865,73.361082 141.09639,124.58881 c 20.95394,8.61796 31.48774,15.06575 35.98817,33.02808 3.53489,14.10853 1.11451,34.65284 -12.72542,36.9883 1.40038,19.56683 2.3464,41.94161 -7.11624,55.6856 -9.31919,13.53569 -28.05352,18.73078 -52.40909,8.62915 -21.010479,11.23143 -38.331506,32.69811 -77.314502,-5.92974 -23.634546,6.71457 -36.3569534,-0.095 -46.727821,-9.49399 -10.941785,-9.91645 -17.11756,-25.57775 -12.569438,-48.20681 z"
         style="fill:#ffffff;fill-opacity:1;stroke:#000000;stroke-width:5.16043329;stroke-linecap:butt;stroke-linejoin:miter;stroke-miterlimit:4;stroke-dasharray:none;stroke-opacity:1" />
      <g
         id="g1231"
         transform="matrix(0.13458156,0,0,0.13458156,-460.12215,195.44828)">
        <g
           id="g1202"
           style="font-style:normal;font-variant:normal;font-weight:normal;font-stretch:normal;font-size:40px;line-height:1.25;font-family:Alba;-inkscape-font-specification:Alba;letter-spacing:0px;word-spacing:0px;fill:#000000;fill-opacity:1;stroke:none"
           transform="matrix(18.770766,0,0,21.607011,5153.6023,1602.8432)"
           aria-label="de nube">
          <path
             inkscape:connector-curvature="0"
             id="path1190"
             style="font-style:normal;font-variant:normal;font-weight:normal;font-stretch:normal;font-family:Alba;-inkscape-font-specification:Alba"
             d="m -76.028672,-101.38736 q -2,0 -3.4,1.439996 -1.4,1.4 -1.4,3.4 0,2 1.4,3.4 1.4,1.4 3.4,1.4 2,0 3.4,-1.4 1.44,-1.4 1.44,-3.4 v -15.679996 q 0,-1.16 0.76,-1.92 0.76,-0.76 1.92,-0.76 1.2,0 1.96,0.76 0.76,0.72 0.76,1.92 v 15.679996 q 0,4.28 -3,7.24 -2.96,2.96 -7.24,2.96 -4.28,0 -7.24,-2.96 -2.96,-2.96 -2.96,-7.24 0,-4.319996 2.92,-7.279996 2.96,-2.96 7.28,-2.96 1.2,0 1.96,0.76 0.76,0.76 0.76,1.96 0,1.2 -0.76,1.96 -0.76,0.72 -1.96,0.72 z" />
          <path
             inkscape:connector-curvature="0"
             id="path1192"
             style="font-style:normal;font-variant:normal;font-weight:normal;font-stretch:normal;font-family:Alba;-inkscape-font-specification:Alba"
             d="m -46.410547,-99.547364 -5.12,5 q -0.88,0.84 -1.88,0.84 -1.12,0 -1.96,-0.84 -0.8,-0.84 -0.8,-1.96 0,-1 0.88,-1.88 l 2.88,-2.839996 q -0.52,-0.08 -1.04,-0.08 -2,0 -3.4,1.399996 -1.4,1.4 -1.4,3.4 0,2 1.4,3.44 1.4,1.4 3.4,1.4 h 3.56 q 1.2,0 1.92,0.76 0.76,0.72 0.76,1.92 0,1.2 -0.76,1.96 -0.72,0.76 -1.92,0.76 h -3.56 q -4.32,0 -7.28,-2.96 -2.92,-2.96 -2.92,-7.28 0,-4.319996 2.92,-7.239996 2.96,-2.96 7.28,-2.96 4.36,0 7.4,3.12 0.8,0.84 0.8,1.84 0,1.32 -1.16,2.199996 z" />
          <path
             inkscape:connector-curvature="0"
             id="path1194"
             style="font-style:normal;font-variant:normal;font-weight:normal;font-stretch:normal;font-family:Alba;-inkscape-font-specification:Alba"
             d="m -10.314297,-77.547364 h -0.16 q -3.68,0 -6.16,-2.48 -2.48,-2.48 -2.48,-6.16 v -1.88 l -0.04,-10.04 q 0,-1.32 -0.96,-2.239996 -0.92,-0.96 -2.24,-0.96 -1.36,0 -2.32,0.92 -0.92,0.919996 -0.92,2.279996 v 9.08 q 0,1.2 -0.76,1.96 -0.76,0.72 -1.96,0.72 -1.2,0 -1.96,-0.72 -0.72,-0.76 -0.72,-1.96 v -9.08 q 0,-3.639996 2.48,-6.119996 2.52,-2.48 6.16,-2.48 3.64,0 6.12,2.48 2.52,2.48 2.52,6.119996 v 11.92 q 0,1.36 0.92,2.28 0.96,0.96 2.32,0.96 h 0.16 q 1.2000001,0 1.9600001,0.76 0.76,0.76 0.76,1.96 0,1.2 -0.76,1.92 -0.76,0.76 -1.9600001,0.76 z" />
          <path
             inkscape:connector-curvature="0"
             id="path1196"
             style="font-style:normal;font-variant:normal;font-weight:normal;font-stretch:normal;font-family:Alba;-inkscape-font-specification:Alba"
             d="m -6.1411719,-103.94736 v 8.959996 q 0,1.36 0.92,2.32 0.96,0.92 2.32,0.92 1.36,0 2.28000003,-0.92 0.92,-0.96 0.92,-2.32 v -9.039996 q 0,-1.2 0.75999997,-1.92 0.76,-0.76 1.96,-0.76 1.2,0 1.92,0.76 0.76,0.72 0.76,1.92 v 9.039996 q 0,3.64 -2.48,6.16 -2.47999998,2.48 -6.12,2.48 -3.68,0 -6.16,-2.48 -2.4800001,-2.48 -2.4800001,-6.16 v -8.959996 q 0,-1.2 0.72,-1.96 0.76,-0.76 1.9600001,-0.76 1.2,0 1.96,0.76 0.76,0.76 0.76,1.96 z" />
          <path
             inkscape:connector-curvature="0"
             id="path1198"
             style="font-style:normal;font-variant:normal;font-weight:normal;font-stretch:normal;font-family:Alba;-inkscape-font-specification:Alba"
             d="m 18.111953,-106.78736 q 4.32,0 7.28,2.96 2.96,2.96 2.96,7.279996 0,4.28 -3,7.24 -2.96,2.96 -7.24,2.96 -4.28,0 -7.24,-2.96 -2.9599999,-2.96 -2.9599999,-7.24 v -15.679996 q 0,-1.16 0.76,-1.92 0.76,-0.76 1.9199999,-0.76 1.2,0 1.96,0.76 0.76,0.72 0.76,1.92 v 15.679996 q 0,2 1.4,3.4 1.4,1.4 3.4,1.4 2,0 3.4,-1.4 1.44,-1.4 1.44,-3.4 0,-2 -1.44,-3.4 -1.4,-1.439996 -3.4,-1.439996 -1.2,0 -1.96,-0.72 -0.72,-0.76 -0.72,-1.96 0,-1.2 0.72,-1.96 0.76,-0.76 1.96,-0.76 z" />
          <path
             inkscape:connector-curvature="0"
             id="path1200"
             style="font-style:normal;font-variant:normal;font-weight:normal;font-stretch:normal;font-family:Alba;-inkscape-font-specification:Alba"
             d="m 47.730078,-99.547364 -5.12,5 q -0.88,0.84 -1.88,0.84 -1.12,0 -1.96,-0.84 -0.8,-0.84 -0.8,-1.96 0,-1 0.88,-1.88 l 2.88,-2.839996 q -0.52,-0.08 -1.04,-0.08 -2,0 -3.4,1.399996 -1.4,1.4 -1.4,3.4 0,2 1.4,3.44 1.4,1.4 3.4,1.4 h 3.56 q 1.2,0 1.92,0.76 0.76,0.72 0.76,1.92 0,1.2 -0.76,1.96 -0.72,0.76 -1.92,0.76 h -3.56 q -4.32,0 -7.28,-2.96 -2.92,-2.96 -2.92,-7.28 0,-4.319996 2.92,-7.239996 2.96,-2.96 7.28,-2.96 4.36,0 7.4,3.12 0.8,0.84 0.8,1.84 0,1.32 -1.16,2.199996 z" />
        </g>
        <g
           style="opacity:1"
           transform="matrix(18.835565,0,0,21.651748,-1131.7653,2496.5581)"
           id="g1229">
          <g
             id="g1217"
             style="font-style:normal;font-weight:normal;font-size:40px;line-height:1.25;font-family:sans-serif;letter-spacing:0px;word-spacing:0px;fill:#000000;fill-opacity:1;stroke:none"
             aria-label="a nube">
            <path
               inkscape:connector-curvature="0"
               id="path1205"
               style="font-style:normal;font-variant:normal;font-weight:normal;font-stretch:normal;font-family:'Alba Super';-inkscape-font-specification:'Alba Super'"
               d="m 283.02687,-93.254593 q 0,2.28 -1.56,3.76 -1.52,1.52 -3.76,1.52 -2.24,0 -3.72,-1.44 -1.52,1.52 -3.8,1.52 -5.44,0 -9.12,-3.72 -3.68,-3.68 -3.68,-9.119997 0,-1 0.16,-2 -0.16,-1 -0.16,-2 0,-5.44 3.68,-9.12 3.68,-3.68 9.12,-3.68 5.44,0 9.12,3.72 3.72,3.68 3.72,9.08 z m -2.6,-4 v -7.479997 q 0,-4.36 -2.96,-7.28 -2.92,-2.92 -7.28,-2.92 -4.36,0 -7.28,2.92 -2.92,2.92 -2.92,7.28 0,4.36 2.92,7.319997 2.92,2.92 7.28,2.92 1.2,0 1.96,-0.76 0.76,-0.76 0.76,-1.96 0,-1.2 -0.76,-1.92 -0.76,-0.76 -1.96,-0.76 -2,0 -3.4,-1.399997 -1.4,-1.44 -1.4,-3.44 0,-2 1.4,-3.4 1.4,-1.4 3.4,-1.4 2,0 3.4,1.4 1.44,1.4 1.44,3.4 v 7.479997 q 0,1.2 0.72,1.96 0.76,0.72 1.96,0.72 1.2,0 1.96,-0.72 0.76,-0.76 0.76,-1.96 z m -8.6,-4.999997 q -0.68,-0.68 -1.64,-0.68 -0.52,0 -0.96,0.2 0.4,0.2 1.24,0.28 1,0.08 1.36,0.2 z" />
            <path
               inkscape:connector-curvature="0"
               id="path1207"
               style="font-style:normal;font-variant:normal;font-weight:normal;font-stretch:normal;font-family:'Alba Super';-inkscape-font-specification:'Alba Super'"
               d="m 322.47125,-84.454593 q 0,2.28 -1.56,3.76 -1.52,1.52 -3.76,1.52 -4.84,0 -8.12,-3.2 -3.28,-3.2 -3.28,-8.04 v -1.88 l -0.04,-10.039997 q 0,-0.6 -0.6,-0.6 -0.64,0 -0.64,0.6 v 9.079997 q 0,2.28 -1.52,3.76 -1.52,1.52 -3.8,1.52 -2.28,0 -3.8,-1.52 -1.48,-1.48 -1.48,-3.76 v -13.079997 q 0,-4.72 3.24,-7.96 3.28,-3.24 8,-3.24 4.72,0 7.96,3.24 3.28,3.24 3.28,7.96 v 11.919997 q 0,0.64 0.64,0.64 2.36,0 3.92,1.48 1.56,1.52 1.56,3.84 0,1.08 -0.36,2 0.36,0.92 0.36,2 z m -2.6,-4 q 0,-1.2 -0.76,-1.96 -0.76,-0.76 -1.96,-0.76 h -0.16 q -1.36,0 -2.32,-0.96 -0.92,-0.92 -0.92,-2.28 v -11.919997 q 0,-3.68 -2.48,-6.12 -2.48,-2.48 -6.16,-2.48 -3.68,0 -6.16,2.48 -2.48,2.44 -2.48,6.12 v 9.079997 q 0,1.2 0.72,1.96 0.76,0.72 1.96,0.72 1.2,0 1.96,-0.72 0.76,-0.76 0.76,-1.96 v -9.079997 q 0,-1.36 0.92,-2.28 0.96,-0.92 2.32,-0.92 1.32,0 2.24,0.96 0.96,0.92 0.96,2.24 l 0.04,11.919997 q 0,3.72 2.44,6.16 2.48,2.48 6.2,2.48 h 0.16 q 1.2,0 1.96,-0.76 0.76,-0.72 0.76,-1.92 z" />
            <path
               inkscape:connector-curvature="0"
               id="path1211"
               style="font-style:normal;font-variant:normal;font-weight:normal;font-stretch:normal;font-family:'Alba Super';-inkscape-font-specification:'Alba Super'"
               d="m 337.405,-99.214593 q 0,4.72 -3.24,7.96 -3.24,3.28 -7.96,3.28 -4.76,0 -8,-3.24 -3.24,-3.24 -3.24,-8 v -12.959997 q 0,-2.28 1.48,-3.8 1.52,-1.52 3.8,-1.52 2.28,0 3.8,1.52 1.52,1.52 1.52,3.8 v 8.96 q 0,0.64 0.64,0.64 0.6,0 0.6,-0.64 v -9.04 q 0,-2.28 1.52,-3.76 1.52,-1.52 3.8,-1.52 2.28,0 3.76,1.52 1.52,1.48 1.52,3.76 z m -2.6,-3.999997 v -9.04 q 0,-1.2 -0.76,-1.92 -0.72,-0.76 -1.92,-0.76 -1.2,0 -1.96,0.76 -0.76,0.72 -0.76,1.92 v 9.04 q 0,1.36 -0.92,2.32 -0.92,0.919997 -2.28,0.919997 -1.36,0 -2.32,-0.919997 -0.92,-0.96 -0.92,-2.32 v -8.96 q 0,-1.2 -0.76,-1.96 -0.76,-0.76 -1.96,-0.76 -1.2,0 -1.96,0.76 -0.72,0.76 -0.72,1.96 v 8.96 q 0,3.719997 2.44,6.199997 2.48,2.44 6.2,2.44 3.68,0 6.12,-2.48 2.48,-2.48 2.48,-6.159997 z" />
            <path
               inkscape:connector-curvature="0"
               id="path1213"
               style="font-style:normal;font-variant:normal;font-weight:normal;font-stretch:normal;font-family:'Alba Super';-inkscape-font-specification:'Alba Super'"
               d="m 361.77687,-100.77459 q 0,5.359997 -3.76,9.079997 -3.72,3.72 -9.08,3.72 -5.4,0 -9.12,-3.72 -3.68,-3.68 -3.68,-9.079997 v -19.68 q 0,-2.24 1.52,-3.76 1.52,-1.52 3.76,-1.52 2.28,0 3.8,1.52 1.52,1.48 1.52,3.76 v 3.28 q 1.04,-0.44 2.2,-0.44 5.44,0 9.12,3.72 3.72,3.68 3.72,9.12 0,1.04 -0.16,2 0.16,1 0.16,2 z m -2.6,-4 q 0,-4.36 -2.96,-7.28 -2.92,-2.96 -7.28,-2.96 -1.2,0 -1.96,0.76 -0.72,0.76 -0.72,1.96 0,1.2 0.72,1.96 0.76,0.72 1.96,0.72 2,0 3.4,1.44 1.44,1.4 1.44,3.4 0,2 -1.44,3.4 -1.4,1.399997 -3.4,1.399997 -2,0 -3.4,-1.399997 -1.4,-1.4 -1.4,-3.4 v -15.68 q 0,-1.2 -0.76,-1.92 -0.76,-0.76 -1.96,-0.76 -1.16,0 -1.92,0.76 -0.76,0.76 -0.76,1.92 v 15.68 q 0,4.32 2.92,7.279997 2.96,2.92 7.28,2.92 4.32,0 7.28,-2.92 2.96,-2.959997 2.96,-7.279997 z m -9.24,2 q -0.44,-0.2 -1.28,-0.28 -0.96,-0.08 -1.32,-0.2 0.64,0.68 1.6,0.68 0.52,0 1,-0.2 z" />
            <path
               inkscape:connector-curvature="0"
               id="path1215"
               style="font-style:normal;font-variant:normal;font-weight:normal;font-stretch:normal;font-family:'Alba Super';-inkscape-font-specification:'Alba Super'"
               d="m 383.95562,-105.97459 q 0,2.52 -2.04,4.16 -0.32,0.32 -1.12,1.16 1.2,1.439997 1.2,3.439997 0,1.04 -0.36,2 0.36,0.96 0.36,2 0,2.28 -1.52,3.8 -1.48,1.52 -3.76,1.52 h -3.56 q -5.4,0 -9.12,-3.72 -3.68,-3.68 -3.68,-9.119997 0,-1 0.16,-2 -0.16,-1 -0.16,-2 0,-5.44 3.68,-9.12 3.68,-3.68 9.12,-3.68 3.56,0 6.92,1.96 3.88,2.24 3.88,5.6 0,1.08 -0.4,2 0.4,0.96 0.4,2 z m -2.6,-4 q 0,-1 -0.8,-1.84 -3.04,-3.12 -7.4,-3.12 -4.36,0 -7.28,2.92 -2.92,2.92 -2.92,7.28 0,4.36 2.92,7.319997 2.92,2.92 7.28,2.92 h 3.56 q 1.2,0 1.92,-0.76 0.76,-0.76 0.76,-1.96 0,-1.2 -0.76,-1.92 -0.72,-0.76 -1.92,-0.76 h -3.56 q -2,0 -3.4,-1.399997 -1.4,-1.44 -1.4,-3.44 0,-2 1.4,-3.4 1.4,-1.4 3.4,-1.4 0.52,0 1.04,0.08 l -2.88,2.84 q -0.88,0.88 -0.88,1.88 0,1.12 0.8,1.96 0.84,0.84 1.96,0.84 1,0 1.88,-0.84 l 5.12,-5 q 1.16,-0.88 1.16,-2.2 z" />
          </g>
          <path
             style="opacity:1;fill:#ffd200;fill-opacity:1;stroke:#000000;stroke-width:1;stroke-linecap:round;stroke-linejoin:round;stroke-miterlimit:4;stroke-dasharray:none;stroke-dashoffset:0;stroke-opacity:1"
             d="m 267.89342,-94.873066 c -3.04076,-0.69031 -5.94269,-3.120639 -7.05579,-5.909134 -0.44526,-1.11546 -0.55489,-1.89896 -0.56127,-4.01123 -0.007,-2.42239 0.0515,-2.75047 0.76252,-4.25071 0.43422,-0.91625 1.30671,-2.16198 1.99928,-2.85455 3.37003,-3.37003 9.0432,-3.85351 13.0301,-1.11045 1.45026,0.99781 2.9105,2.88537 3.59936,4.65269 0.48761,1.251 0.57483,2.03166 0.67061,6.00251 0.1251,5.186484 0.014,6.124469 -0.82501,6.963447 -0.90802,0.90802 -2.66174,0.843587 -3.63903,-0.133701 l -0.73077,-0.73077 -0.005,-4.706726 c -0.005,-4.01121 -0.0728,-4.85483 -0.46075,-5.70888 -0.58702,-1.29218 -2.03049,-2.55269 -3.16746,-2.76598 -3.51209,-0.65887 -6.1163,1.36029 -6.1163,4.74226 0,2.75712 1.59575,4.49035 4.51394,4.902835 1.70914,0.241586 2.17018,0.530133 2.63899,1.651655 0.42377,1.013777 0.0488,2.452669 -0.78081,2.99625 -0.82904,0.54321 -2.23742,0.641591 -3.87212,0.270484 z"
             id="path1219"
             inkscape:connector-curvature="0" />
          <path
             style="opacity:1;fill:#ffd200;fill-opacity:1;stroke:#000000;stroke-width:1;stroke-linecap:round;stroke-linejoin:round;stroke-miterlimit:4;stroke-dasharray:none;stroke-dashoffset:0;stroke-opacity:1"
             d="m 315.37633,-86.04561 c -1.71891,-0.29104 -3.52932,-1.322913 -4.7993,-2.735435 -1.92271,-2.138514 -2.00769,-2.575057 -2.1681,-11.13738 -0.14897,-7.951705 -0.17605,-8.125045 -1.42264,-9.105615 -1.31694,-1.0359 -4.03813,-0.46281 -4.88941,1.02974 -0.23714,0.41577 -0.35148,2.15328 -0.41126,6.24959 l -0.0828,5.673711 -0.63879,0.638787 c -0.50399,0.503987 -0.88219,0.637109 -1.7922,0.630836 -2.38055,-0.01641 -2.52841,-0.453028 -2.52841,-7.466234 0,-5.19516 0.0501,-5.891 0.51344,-7.12934 0.67874,-1.8141 2.40086,-3.6948 4.18591,-4.57138 1.26038,-0.61894 1.70098,-0.69965 3.80065,-0.69622 2.00973,0.003 2.56726,0.0982 3.625,0.61702 1.59727,0.78348 3.34555,2.53171 4.1292,4.1291 0.60078,1.22464 0.61584,1.40725 0.74201,9 0.11523,6.933717 0.17642,7.820149 0.58093,8.415967 0.57233,0.842987 1.85692,1.459038 3.04238,1.459038 2.09291,0 3.24002,2.822287 1.75193,4.31037 -0.53071,0.53071 -1.77831,1.015967 -2.3402,0.910225 -0.0859,-0.01618 -0.67019,-0.116423 -1.29834,-0.22278 z"
             id="path1221"
             inkscape:connector-curvature="0" />
          <path
             style="opacity:1;fill:#ffd200;fill-opacity:1;stroke:#000000;stroke-width:1;stroke-linecap:round;stroke-linejoin:round;stroke-miterlimit:4;stroke-dasharray:none;stroke-dashoffset:0;stroke-opacity:1"
             d="m 323.64342,-95.027207 c -2.1793,-0.665315 -4.34635,-2.583569 -5.33477,-4.722301 -0.50774,-1.098632 -0.54023,-1.542152 -0.54023,-7.376372 v -6.20745 l 0.81645,-0.73005 c 1.10287,-0.98616 2.26338,-0.98654 3.36711,-0.001 l 0.81644,0.72894 0.125,5.70856 c 0.13148,6.0044 0.21002,6.42224 1.34725,7.16738 1.55707,1.020229 3.6332,0.621314 4.75998,-0.9146 0.47836,-0.65204 0.52729,-1.14379 0.64277,-6.4598 l 0.125,-5.75404 0.70144,-0.60269 c 1.02963,-0.88468 2.48415,-0.83057 3.44279,0.12807 l 0.73077,0.73077 v 5.88486 c 0,5.37644 -0.0458,6.00985 -0.53051,7.33173 -0.73051,1.99234 -3.04488,4.286286 -4.93569,4.892131 -1.38157,0.442673 -4.37809,0.548786 -5.5338,0.195962 z"
             id="path1223"
             inkscape:connector-curvature="0" />
          <path
             style="opacity:1;fill:#ffd200;fill-opacity:1;stroke:#000000;stroke-width:1;stroke-linecap:round;stroke-linejoin:round;stroke-miterlimit:4;stroke-dasharray:none;stroke-dashoffset:0;stroke-opacity:1"
             d="m 345.63562,-95.163923 c -2.74017,-0.877427 -5.28628,-3.454969 -6.21877,-6.295547 -0.49204,-1.49886 -0.52343,-2.13447 -0.52343,-10.60162 0,-9.92071 0.0284,-10.12278 1.50911,-10.73611 1.06459,-0.44096 2.41542,-0.0766 3.09194,0.83405 0.50375,0.67807 0.52877,1.05886 0.64895,9.875 0.0889,6.51989 0.21255,9.32237 0.42795,9.69794 0.94189,1.64226 3.27307,2.775721 5.08072,2.47032 3.88583,-0.65651 5.60327,-5.37418 2.94592,-8.09219 -1.06463,-1.08893 -1.96747,-1.52682 -3.52934,-1.7118 -1.74723,-0.20693 -2.67525,-1.09829 -2.67525,-2.56955 0,-0.8242 0.15726,-1.19571 0.76219,-1.80064 0.7434,-0.7434 0.80975,-0.75943 2.69245,-0.65045 4.57229,0.26469 8.24353,3.61629 9.05304,8.26485 0.77192,4.43267 -1.61862,8.99396 -5.70316,10.881995 -1.19229,0.55112 -1.84439,0.672037 -3.92952,0.72863 -1.66967,0.04532 -2.87623,-0.05262 -3.6328,-0.294878 z"
             id="path1225"
             inkscape:connector-curvature="0" />
          <path
             style="opacity:1;fill:#ffd200;fill-opacity:1;stroke:#000000;stroke-width:1;stroke-linecap:round;stroke-linejoin:round;stroke-miterlimit:4;stroke-dasharray:none;stroke-dashoffset:0;stroke-opacity:1"
             d="m 370.76842,-94.890324 c -2.97237,-0.723778 -5.54576,-2.83484 -6.81415,-5.589936 -0.949,-2.06135 -1.0826,-5.28492 -0.31337,-7.56096 0.95625,-2.82937 2.59223,-4.61903 5.44366,-5.955 1.27075,-0.59538 1.73248,-0.67181 4.05886,-0.67181 2.32447,0 2.78867,0.0767 4.05452,0.66982 0.78623,0.3684 1.99561,1.19933 2.6875,1.84651 1.10614,1.03466 1.25798,1.29778 1.25798,2.17985 0,0.93849 -0.17321,1.18 -2.6875,3.74701 -4.41111,4.50364 -5.34394,4.94997 -6.9625,3.33141 -0.6609,-0.6609 -0.85,-1.05614 -0.85,-1.77664 0,-0.80872 0.2227,-1.15631 1.75,-2.73143 0.9625,-0.99263 1.75,-1.89416 1.75,-2.0034 0,-0.10924 -0.67327,-0.14992 -1.49616,-0.0904 -2.58411,0.18692 -4.33893,2.07784 -4.33509,4.67131 0.003,1.82354 0.75077,3.30472 2.1302,4.21779 0.96294,0.637381 1.27347,0.696934 4.23815,0.812775 2.78604,0.108861 3.2648,0.190728 3.70812,0.634073 1.20397,1.20405 1.0431,3.295018 -0.31733,4.124514 -0.66979,0.408393 -1.23803,0.486174 -3.42789,0.469217 -1.44375,-0.01118 -3.1875,-0.157296 -3.875,-0.324703 z"
             id="path1227"
             inkscape:connector-curvature="0" />
        </g>
      </g>
    </g>
  </g>
</svg>
